<svg width="64" height="64" viewBox="0 0 64 64" fill="none" xmlns="http://www.w3.org/2000/svg">
<rect width="64" height="64" rx="32" fill="#FF5730"/>
<g clip-path="url(#clip0_460_2)">
<path d="M23.6536 17.3304C23.9939 18.3512 23.441 19.4511 22.4262 19.7913L20.8342 20.32V27.6663C20.8342 30.8868 23.447 33.4997 26.6675 33.4997C29.888 33.4997 32.5009 30.8868 32.5009 27.6663V20.32L30.9149 19.7913C29.8941 19.4511 29.3472 18.3512 29.6875 17.3304C30.0278 16.3096 31.1276 15.7627 32.1484 16.103L33.7344 16.6316C35.3203 17.1603 36.3898 18.6429 36.3898 20.32V27.6663C36.3898 32.3573 33.072 36.2705 28.6545 37.188C29.0373 40.5847 31.9175 43.2219 35.4175 43.2219C39.1788 43.2219 42.2231 40.1776 42.2231 36.4163V32.1203C40.5035 31.3729 39.3064 29.6594 39.3064 27.6663C39.3064 24.9806 41.4818 22.8052 44.1675 22.8052C46.8533 22.8052 49.0286 24.9806 49.0286 27.6663C49.0286 29.6594 47.8316 31.3729 46.112 32.1203V36.4163C46.112 42.3226 41.3238 47.1108 35.4175 47.1108C29.7726 47.1108 25.1545 42.7419 24.7535 37.2002C20.2995 36.307 16.9453 32.3816 16.9453 27.6663V20.32C16.9453 18.649 18.0148 17.1603 19.6068 16.6316L21.1927 16.103C22.2135 15.7627 23.3134 16.3156 23.6536 17.3304ZM44.1675 29.6108C44.6832 29.6108 45.1778 29.4059 45.5425 29.0413C45.9071 28.6766 46.112 28.182 46.112 27.6663C46.112 27.1506 45.9071 26.6561 45.5425 26.2914C45.1778 25.9268 44.6832 25.7219 44.1675 25.7219C43.6518 25.7219 43.1573 25.9268 42.7926 26.2914C42.428 26.6561 42.2231 27.1506 42.2231 27.6663C42.2231 28.182 42.428 28.6766 42.7926 29.0413C43.1573 29.4059 43.6518 29.6108 44.1675 29.6108Z" fill="white"/>
</g>
<defs>
<clipPath id="clip0_460_2">
<rect width="35" height="31.1111" fill="white" transform="translate(15 16)"/>
</clipPath>
</defs>
</svg>
